<svg width="20" height="23.000000000000004" xmlns="http://www.w3.org/2000/svg">
 <g>
  <title>Layer 1</title>
  <line stroke-linecap="undefined" stroke-linejoin="undefined" id="svg_2" y2="164" x2="446" y1="164" x1="446" opacity="NaN" stroke="#000" fill="none"/>
  <line stroke-linecap="undefined" stroke-linejoin="undefined" id="svg_4" y2="410" x2="833" y1="410" x1="833" opacity="NaN" stroke="#000" fill="none"/>
  <line stroke-linecap="undefined" stroke-linejoin="undefined" id="svg_6" y2="380" x2="1203" y1="380" x1="1203" opacity="NaN" stroke="#000" fill="none"/>
  <line stroke-linecap="undefined" stroke-linejoin="undefined" id="svg_8" y2="318" x2="1075" y1="318" x1="1075" opacity="NaN" stroke="#000" fill="none"/>
  <line stroke-linecap="undefined" stroke-linejoin="undefined" id="svg_9" y2="437" x2="857" y1="437" x1="857" opacity="NaN" stroke="#000" fill="none"/>
  <line stroke-linecap="undefined" stroke-linejoin="undefined" id="svg_10" y2="439" x2="858" y1="439" x1="858" opacity="NaN" stroke="#000" fill="none"/>
  <line stroke-linecap="undefined" stroke-linejoin="undefined" id="svg_11" y2="570" x2="1018" y1="570" x1="1018" opacity="NaN" stroke="#000" fill="none"/>
  <line stroke-linecap="undefined" stroke-linejoin="undefined" id="svg_12" y2="150" x2="465" y1="150" x1="465" opacity="NaN" stroke="#000" fill="none"/>
  <line stroke-linecap="undefined" stroke-linejoin="undefined" id="svg_13" y2="442" x2="877" y1="442" x1="877" opacity="NaN" stroke="#000" fill="none"/>
  <line stroke-linecap="undefined" stroke-linejoin="undefined" id="svg_14" y2="572" x2="1126" y1="572" x1="1126" opacity="NaN" stroke="#000" fill="none"/>
  <line stroke-linecap="undefined" stroke-linejoin="undefined" id="svg_15" y2="406" x2="833" y1="406" x1="833" opacity="NaN" stroke="#000" fill="none"/>
  <line stroke-linecap="undefined" stroke-linejoin="undefined" id="svg_16" y2="219" x2="393" y1="219" x1="393" opacity="NaN" stroke="#000" fill="none"/>
  <path fill="#fff" stroke="#000" d="m-187.87695,-117.46183c-0.04834,-0.12064 -0.042,-0.19369 0.07553,-0.86994c0.05934,-0.34147 0.1079,-0.63078 0.1079,-0.64291c0,-0.01213 -0.16387,-0.02205 -0.36416,-0.02205l-0.36416,0l0,-0.63954l0,-0.63954l0.36705,0c0.28301,0 0.36389,-0.01927 0.35325,-0.08415c-0.00759,-0.04628 -0.05936,-0.35341 -0.11504,-0.6825c-0.10497,-0.62034 -0.10493,-0.78671 0.00016,-0.83827c0.0523,-0.02566 0.86658,1.94604 0.89457,2.16612c-0.27123,0.7858 -0.59544,1.60834 -0.89409,2.33358c-0.01575,0 -0.0432,-0.03635 -0.061,-0.08078l0,0l-0.00001,-0.00002z" id="svg_21"/>
  <path transform="rotate(1.45901 10.7614 10.6418)" stroke="#000" id="svg_1" d="m8.70694,16.11489c-0.4842,-0.30438 -0.42067,-0.4887 0.75656,-2.19495c0.59445,-0.86157 1.08081,-1.59152 1.08081,-1.62213c0,-0.0306 -1.64147,-0.05564 -3.64773,-0.05564l-3.64773,0l0,-1.61363l0,-1.61363l3.67664,0c2.8349,0 3.64499,-0.04861 3.53842,-0.21232c-0.07602,-0.11678 -0.59458,-0.89168 -1.15236,-1.72201c-1.05142,-1.56518 -1.05109,-1.98493 0.00162,-2.11504c0.5239,-0.06475 8.68035,4.91004 8.9607,5.46532c-2.71684,1.98265 -5.96439,4.05798 -8.95591,5.88784c-0.15774,0 -0.4327,-0.09172 -0.61103,-0.20383l0,0z" fill="#CBFFFF"/>
  <path stroke="#000" id="svg_3" d="m147.37336,19.2749c-0.44311,-0.34181 -0.38498,-0.5488 0.69236,-2.46487c0.544,-0.96752 0.98909,-1.78724 0.98909,-1.8216c0,-0.03436 -1.50218,-0.06248 -3.33818,-0.06248l-3.33818,0l0,-1.81206l0,-1.81206l3.36464,0c2.59433,0 3.33568,-0.05459 3.23815,-0.23843c-0.06957,-0.13114 -0.54412,-1.00133 -1.05457,-1.93377c-0.9622,-1.75766 -0.96189,-2.22902 0.00149,-2.37513c0.47944,-0.07271 7.94373,5.51384 8.20029,6.13741c-2.48629,2.22647 -5.45825,4.55701 -8.19591,6.61188c-0.14435,0 -0.39598,-0.103 -0.55918,-0.22889l0,0z" fill="#fff"/>
 </g>

</svg>